<?xml version="1.0" encoding="UTF-8"?>
<svg id="Layer_1" xmlns="http://www.w3.org/2000/svg" xmlns:xlink="http://www.w3.org/1999/xlink" version="1.1" viewBox="0 0 2388.71 1080">
  <!-- Generator: Adobe Illustrator 29.7.1, SVG Export Plug-In . SVG Version: 2.1.1 Build 8)  -->
  <defs>
    <style>
      .st0 {
        fill: none;
      }

      .st1 {
        clip-path: url(#clippath-1);
      }

      .st2 {
        fill: #00ffa9;
        font-family: Cubano-Regular, Cubano;
        font-size: 483.08px;
      }

      .st3 {
        fill: #3fc980;
      }

      .st4 {
        fill: #4affb1;
      }

      .st5 {
        clip-path: url(#clippath);
      }
    </style>
    <clipPath id="clippath">
      <circle class="st0" cx="494.76" cy="517.7" r="340.27"/>
    </clipPath>
    <clipPath id="clippath-1">
      <circle class="st0" cx="490.45" cy="526.15" r="340.27"/>
    </clipPath>
  </defs>
  <text class="st2" transform="translate(975.44 691.56)"><tspan x="0" y="0">Nowa</tspan></text>
  <g>
    <g class="st5">
      <g>
        <rect class="st3" x="303.18" y="742.66" width="18.79" height="128.61"/>
        <rect class="st3" x="328.85" y="689.28" width="18.79" height="181.99"/>
        <rect class="st3" x="354.52" y="637.95" width="18.79" height="233.32"/>
        <rect class="st3" x="380.18" y="589.77" width="18.79" height="281.5"/>
        <rect class="st3" x="405.85" y="540.01" width="18.79" height="331.25"/>
        <rect class="st3" x="431.52" y="522.41" width="18.79" height="348.86"/>
        <rect class="st3" x="457.19" y="556.14" width="18.79" height="315.13"/>
        <rect class="st3" x="482.86" y="589.77" width="18.79" height="281.5"/>
        <rect class="st3" x="508.52" y="626.49" width="18.79" height="244.78"/>
        <rect class="st3" x="534.19" y="654.53" width="18.79" height="216.74"/>
        <rect class="st3" x="559.86" y="662.31" width="18.79" height="208.95"/>
        <rect class="st3" x="585.53" y="660.24" width="18.79" height="211.03"/>
        <rect class="st3" x="611.19" y="628.17" width="18.79" height="243.1"/>
        <rect class="st3" x="636.86" y="548.64" width="18.79" height="322.63"/>
        <rect class="st3" x="662.53" y="449.87" width="18.79" height="421.39"/>
        <rect class="st3" x="688.2" y="357.52" width="18.79" height="513.75"/>
        <rect class="st3" x="713.86" y="166.89" width="18.79" height="704.38"/>
        <rect class="st3" x="740.02" y="166.89" width="18.79" height="704.38"/>
        <rect class="st3" x="766.17" y="166.89" width="18.79" height="704.38"/>
        <rect class="st3" x="792.33" y="166.89" width="18.79" height="704.38"/>
        <rect class="st3" x="818.48" y="166.89" width="18.79" height="704.38"/>
        <rect class="st3" x="303.18" y="167.23" width="18.79" height="458.91"/>
        <rect class="st3" x="328.85" y="166.03" width="18.79" height="372.87"/>
        <rect class="st3" x="354.52" y="166.03" width="18.79" height="301.47"/>
        <rect class="st3" x="380.18" y="166.03" width="18.79" height="244.65"/>
        <rect class="st3" x="251.63" y="166.03" width="18.79" height="706.06"/>
        <rect class="st3" x="226.22" y="166.03" width="18.79" height="706.06"/>
        <rect class="st3" x="201.56" y="166.03" width="18.79" height="706.06"/>
        <rect class="st3" x="176.9" y="166.03" width="18.79" height="706.06"/>
        <rect class="st3" x="152.24" y="166.03" width="18.79" height="706.06"/>
        <rect class="st3" x="277.29" y="166.03" width="18.79" height="537.45"/>
        <rect class="st3" x="405.85" y="166.03" width="18.79" height="234.63"/>
        <rect class="st3" x="431.52" y="166.03" width="18.79" height="233.86"/>
        <rect class="st3" x="457.19" y="166.03" width="18.79" height="249.14"/>
        <rect class="st3" x="482.86" y="166.03" width="18.79" height="282.06"/>
        <rect class="st3" x="508.52" y="166.03" width="18.79" height="320.28"/>
        <rect class="st3" x="534.19" y="166.03" width="18.79" height="354.4"/>
        <rect class="st3" x="559.86" y="166.03" width="18.79" height="374.34"/>
        <rect class="st3" x="585.53" y="166.03" width="18.79" height="323.82"/>
        <rect class="st3" x="611.19" y="166.03" width="18.79" height="273.36"/>
        <rect class="st3" x="636.86" y="166.03" width="18.79" height="211.95"/>
        <rect class="st3" x="662.53" y="166.03" width="18.79" height="146.48"/>
      </g>
    </g>
    <g class="st1">
      <g>
        <rect class="st4" x="298.88" y="751.11" width="18.79" height="128.61"/>
        <rect class="st4" x="324.54" y="697.74" width="18.79" height="181.99"/>
        <rect class="st4" x="350.21" y="646.4" width="18.79" height="233.32"/>
        <rect class="st4" x="375.88" y="598.23" width="18.79" height="281.5"/>
        <rect class="st4" x="401.55" y="548.47" width="18.79" height="331.25"/>
        <rect class="st4" x="427.21" y="530.87" width="18.79" height="348.86"/>
        <rect class="st4" x="452.88" y="564.6" width="18.79" height="315.13"/>
        <rect class="st4" x="478.55" y="598.23" width="18.79" height="281.5"/>
        <rect class="st4" x="504.22" y="634.95" width="18.79" height="244.78"/>
        <rect class="st4" x="529.89" y="662.99" width="18.79" height="216.74"/>
        <rect class="st4" x="555.55" y="670.77" width="18.79" height="208.95"/>
        <rect class="st4" x="581.22" y="668.69" width="18.79" height="211.03"/>
        <rect class="st4" x="606.89" y="636.63" width="18.79" height="243.1"/>
        <rect class="st4" x="632.56" y="557.1" width="18.79" height="322.63"/>
        <rect class="st4" x="658.22" y="458.33" width="18.79" height="421.39"/>
        <rect class="st4" x="683.89" y="365.98" width="18.79" height="513.75"/>
        <rect class="st4" x="709.56" y="175.35" width="18.79" height="704.38"/>
        <rect class="st4" x="735.71" y="175.35" width="18.79" height="704.38"/>
        <rect class="st4" x="761.87" y="175.35" width="18.79" height="704.38"/>
        <rect class="st4" x="788.02" y="175.35" width="18.79" height="704.38"/>
        <rect class="st4" x="814.18" y="175.35" width="18.79" height="704.38"/>
        <rect class="st4" x="298.88" y="175.69" width="18.79" height="458.91"/>
        <rect class="st4" x="324.54" y="174.48" width="18.79" height="372.87"/>
        <rect class="st4" x="350.21" y="174.48" width="18.79" height="301.47"/>
        <rect class="st4" x="375.88" y="174.48" width="18.79" height="244.65"/>
        <rect class="st4" x="247.32" y="174.48" width="18.79" height="706.06"/>
        <rect class="st4" x="221.91" y="174.48" width="18.79" height="706.06"/>
        <rect class="st4" x="197.25" y="174.48" width="18.79" height="706.06"/>
        <rect class="st4" x="172.59" y="174.48" width="18.79" height="706.06"/>
        <rect class="st4" x="147.93" y="174.48" width="18.79" height="706.06"/>
        <rect class="st4" x="272.99" y="174.48" width="18.79" height="537.45"/>
        <rect class="st4" x="401.55" y="174.48" width="18.79" height="234.63"/>
        <rect class="st4" x="427.21" y="174.48" width="18.79" height="233.86"/>
        <rect class="st4" x="452.88" y="174.48" width="18.79" height="249.14"/>
        <rect class="st4" x="478.55" y="174.48" width="18.79" height="282.06"/>
        <rect class="st4" x="504.22" y="174.48" width="18.79" height="320.28"/>
        <rect class="st4" x="529.89" y="174.48" width="18.79" height="354.4"/>
        <rect class="st4" x="555.55" y="174.48" width="18.79" height="374.34"/>
        <rect class="st4" x="581.22" y="174.48" width="18.79" height="323.82"/>
        <rect class="st4" x="606.89" y="174.48" width="18.79" height="273.36"/>
        <rect class="st4" x="632.56" y="174.48" width="18.79" height="211.95"/>
        <rect class="st4" x="658.22" y="174.48" width="18.79" height="146.48"/>
      </g>
    </g>
  </g>
</svg>