<?xml version="1.0" encoding="UTF-8"?>
<svg id="Layer_1" xmlns="http://www.w3.org/2000/svg" xmlns:xlink="http://www.w3.org/1999/xlink" version="1.1" viewBox="0 0 1080 1080">
  <!-- Generator: Adobe Illustrator 29.7.1, SVG Export Plug-In . SVG Version: 2.1.1 Build 8)  -->
  <defs>
    <style>
      .st0 {
        fill: none;
      }

      .st1 {
        fill: #00ffa9;
      }

      .st2 {
        clip-path: url(#clippath-1);
      }

      .st3 {
        fill: #3fc980;
      }

      .st4 {
        fill: #4affb1;
      }

      .st5 {
        clip-path: url(#clippath);
      }
    </style>
    <clipPath id="clippath">
      <circle class="st0" cx="530.61" cy="365.25" r="254.9"/>
    </clipPath>
    <clipPath id="clippath-1">
      <circle class="st0" cx="527.39" cy="371.59" r="254.9"/>
    </clipPath>
  </defs>
  <g>
    <path class="st1" d="M141.79,716.93c6.15,0,10.13,2.53,12.67,8.32l49.22,120.51c1.45,3.26,4.34,2.53,4.34-1.09v-116.89c0-7.24,3.98-10.86,10.86-10.86h40.53c7.24,0,10.86,3.62,10.86,10.86v231.61c0,6.88-3.62,10.86-10.86,10.86h-53.2c-6.15,0-10.13-2.53-12.67-8.32l-49.22-120.51c-1.45-3.26-4.34-2.53-4.34,1.09v116.89c0,6.88-3.62,10.86-10.86,10.86h-40.53c-6.88,0-10.86-3.98-10.86-10.86v-231.61c0-7.24,3.98-10.86,10.86-10.86h53.2Z"/>
    <path class="st1" d="M484.5,888.83c0,23.88-5.07,87.94-90.84,87.94s-90.83-64.05-90.83-87.94v-90.47c0-23.88,5.07-87.94,90.83-87.94s90.84,64.05,90.84,87.94v90.47ZM422.25,817.53c0-27.87-1.81-44.88-28.59-44.88s-28.59,17.01-28.59,44.88v52.11c0,27.87,1.81,44.88,28.59,44.88s28.59-17.01,28.59-44.88v-52.11Z"/>
    <path class="st1" d="M504.03,728.87c-1.45-7.6,2.17-11.94,9.77-11.94h43.06c6.51,0,11.22,3.26,11.94,9.41l20.63,150.91c.72,3.62,3.62,3.62,4.34,0l24.25-150.91c1.08-6.15,5.43-9.41,11.94-9.41h31.12c6.51,0,10.86,3.26,11.94,9.41l24.25,150.91c.72,3.62,3.62,3.62,4.34,0l20.63-150.91c.72-6.15,5.43-9.41,11.94-9.41h43.07c7.6,0,11.22,4.34,9.77,11.94l-44.51,231.97c-1.09,6.15-5.43,9.41-11.94,9.41h-51.03c-6.51,0-10.5-3.26-11.94-9.41l-19.9-89.03c-.72-3.62-3.62-3.62-4.34,0l-19.9,89.03c-1.45,6.15-5.43,9.41-11.94,9.41h-51.03c-6.51,0-10.86-3.26-11.94-9.41l-44.51-231.97Z"/>
    <path class="st1" d="M982.08,957.95c0,7.96-3.62,12.3-10.86,12.3h-40.53c-6.88,0-10.86-3.62-10.86-10.86v-31.49c0-7.24-3.62-10.86-10.86-10.86h-31.12c-6.88,0-10.86,3.62-10.86,10.86v31.49c0,7.24-3.62,10.86-10.86,10.86h-40.53c-6.88,0-10.86-4.34-10.86-12.3v-153.44c0-45.6,7.24-94.09,88.66-94.09s88.66,48.49,88.66,94.09v153.44ZM919.84,804.5c0-17.37-2.53-26.06-26.42-26.06s-26.42,8.68-26.42,26.06v39.45c0,6.88,3.98,10.86,10.86,10.86h31.12c7.24-.36,10.86-3.98,10.86-11.22v-39.08Z"/>
  </g>
  <g>
    <g class="st5">
      <g>
        <rect class="st3" x="387.1" y="533.77" width="14.08" height="96.35"/>
        <rect class="st3" x="406.33" y="493.79" width="14.08" height="136.33"/>
        <rect class="st3" x="425.56" y="455.33" width="14.08" height="174.79"/>
        <rect class="st3" x="444.79" y="419.25" width="14.08" height="210.88"/>
        <rect class="st3" x="464.01" y="381.97" width="14.08" height="248.15"/>
        <rect class="st3" x="483.24" y="368.79" width="14.08" height="261.34"/>
        <rect class="st3" x="502.47" y="394.05" width="14.08" height="236.07"/>
        <rect class="st3" x="521.7" y="419.25" width="14.08" height="210.88"/>
        <rect class="st3" x="540.93" y="446.76" width="14.08" height="183.36"/>
        <rect class="st3" x="560.15" y="467.76" width="14.08" height="162.36"/>
        <rect class="st3" x="579.38" y="473.59" width="14.08" height="156.53"/>
        <rect class="st3" x="598.61" y="472.03" width="14.08" height="158.09"/>
        <rect class="st3" x="617.84" y="448.01" width="14.08" height="182.11"/>
        <rect class="st3" x="637.07" y="388.44" width="14.08" height="241.69"/>
        <rect class="st3" x="656.29" y="314.45" width="14.08" height="315.67"/>
        <rect class="st3" x="675.52" y="245.26" width="14.08" height="384.86"/>
        <rect class="st3" x="694.75" y="102.46" width="14.08" height="527.66"/>
        <rect class="st3" x="714.34" y="102.46" width="14.08" height="527.66"/>
        <rect class="st3" x="733.94" y="102.46" width="14.08" height="527.66"/>
        <rect class="st3" x="753.53" y="102.46" width="14.08" height="527.66"/>
        <rect class="st3" x="773.12" y="102.46" width="14.08" height="527.66"/>
        <rect class="st3" x="387.1" y="102.71" width="14.08" height="343.78"/>
        <rect class="st3" x="406.33" y="101.81" width="14.08" height="279.32"/>
        <rect class="st3" x="425.56" y="101.81" width="14.08" height="225.84"/>
        <rect class="st3" x="444.79" y="101.81" width="14.08" height="183.27"/>
        <rect class="st3" x="348.48" y="101.81" width="14.08" height="528.92"/>
        <rect class="st3" x="329.45" y="101.81" width="14.08" height="528.92"/>
        <rect class="st3" x="310.97" y="101.81" width="14.08" height="528.92"/>
        <rect class="st3" x="292.5" y="101.81" width="14.08" height="528.92"/>
        <rect class="st3" x="274.03" y="101.81" width="14.08" height="528.92"/>
        <rect class="st3" x="367.71" y="101.81" width="14.08" height="402.62"/>
        <rect class="st3" x="464.01" y="101.81" width="14.08" height="175.76"/>
        <rect class="st3" x="483.24" y="101.81" width="14.08" height="175.19"/>
        <rect class="st3" x="502.47" y="101.81" width="14.08" height="186.64"/>
        <rect class="st3" x="521.7" y="101.81" width="14.08" height="211.3"/>
        <rect class="st3" x="540.93" y="101.81" width="14.08" height="239.93"/>
        <rect class="st3" x="560.15" y="101.81" width="14.08" height="265.48"/>
        <rect class="st3" x="579.38" y="101.81" width="14.08" height="280.43"/>
        <rect class="st3" x="598.61" y="101.81" width="14.08" height="242.58"/>
        <rect class="st3" x="617.84" y="101.81" width="14.08" height="204.78"/>
        <rect class="st3" x="637.07" y="101.81" width="14.08" height="158.77"/>
        <rect class="st3" x="656.29" y="101.81" width="14.08" height="109.73"/>
      </g>
    </g>
    <g class="st2">
      <g>
        <rect class="st4" x="383.88" y="540.11" width="14.08" height="96.35"/>
        <rect class="st4" x="403.11" y="500.13" width="14.08" height="136.33"/>
        <rect class="st4" x="422.33" y="461.67" width="14.08" height="174.79"/>
        <rect class="st4" x="441.56" y="425.58" width="14.08" height="210.88"/>
        <rect class="st4" x="460.79" y="388.31" width="14.08" height="248.15"/>
        <rect class="st4" x="480.02" y="375.12" width="14.08" height="261.34"/>
        <rect class="st4" x="499.25" y="400.39" width="14.08" height="236.07"/>
        <rect class="st4" x="518.47" y="425.58" width="14.08" height="210.88"/>
        <rect class="st4" x="537.7" y="453.09" width="14.08" height="183.36"/>
        <rect class="st4" x="556.93" y="474.09" width="14.08" height="162.36"/>
        <rect class="st4" x="576.16" y="479.92" width="14.08" height="156.53"/>
        <rect class="st4" x="595.39" y="478.37" width="14.08" height="158.09"/>
        <rect class="st4" x="614.61" y="454.35" width="14.08" height="182.11"/>
        <rect class="st4" x="633.84" y="394.77" width="14.08" height="241.69"/>
        <rect class="st4" x="653.07" y="320.78" width="14.08" height="315.67"/>
        <rect class="st4" x="672.3" y="251.6" width="14.08" height="384.86"/>
        <rect class="st4" x="691.53" y="108.8" width="14.08" height="527.66"/>
        <rect class="st4" x="711.12" y="108.8" width="14.08" height="527.66"/>
        <rect class="st4" x="730.71" y="108.8" width="14.08" height="527.66"/>
        <rect class="st4" x="750.3" y="108.8" width="14.08" height="527.66"/>
        <rect class="st4" x="769.9" y="108.8" width="14.08" height="527.66"/>
        <rect class="st4" x="383.88" y="109.05" width="14.08" height="343.78"/>
        <rect class="st4" x="403.11" y="108.15" width="14.08" height="279.32"/>
        <rect class="st4" x="422.33" y="108.15" width="14.08" height="225.84"/>
        <rect class="st4" x="441.56" y="108.15" width="14.08" height="183.27"/>
        <rect class="st4" x="345.26" y="108.15" width="14.08" height="528.92"/>
        <rect class="st4" x="326.22" y="108.15" width="14.08" height="528.92"/>
        <rect class="st4" x="307.75" y="108.15" width="14.08" height="528.92"/>
        <rect class="st4" x="289.28" y="108.15" width="14.08" height="528.92"/>
        <rect class="st4" x="270.8" y="108.15" width="14.08" height="528.92"/>
        <rect class="st4" x="364.48" y="108.15" width="14.08" height="402.62"/>
        <rect class="st4" x="460.79" y="108.15" width="14.08" height="175.76"/>
        <rect class="st4" x="480.02" y="108.15" width="14.08" height="175.19"/>
        <rect class="st4" x="499.25" y="108.15" width="14.08" height="186.64"/>
        <rect class="st4" x="518.47" y="108.15" width="14.08" height="211.3"/>
        <rect class="st4" x="537.7" y="108.15" width="14.08" height="239.93"/>
        <rect class="st4" x="556.93" y="108.15" width="14.08" height="265.48"/>
        <rect class="st4" x="576.16" y="108.15" width="14.08" height="280.43"/>
        <rect class="st4" x="595.39" y="108.15" width="14.08" height="242.58"/>
        <rect class="st4" x="614.61" y="108.15" width="14.08" height="204.78"/>
        <rect class="st4" x="633.84" y="108.15" width="14.08" height="158.77"/>
        <rect class="st4" x="653.07" y="108.15" width="14.08" height="109.73"/>
      </g>
    </g>
  </g>
</svg>