<svg width="175" height="38" viewBox="0 0 175 38" fill="none" xmlns="http://www.w3.org/2000/svg">
<path d="M20.8788 10.2007L25.0478 5.39664L25.319 12.5735L25.8052 14.9485L20.8788 10.1986V10.2007V10.2007ZM20.5555 16.7287L18.5523 17.5917L16.6035 19.48L18.7694 15.1627L22.1267 14.9464L20.5576 16.7266L20.5555 16.7287H20.5555ZM10.7527 17.594L8.74972 16.7309L7.18063 14.9507L10.5379 15.167L12.7038 19.4843L10.7549 17.5961L10.7527 17.594ZM3.98405 12.5736L4.25526 5.39666L8.42417 10.2008L3.49782 14.9507L3.98389 12.5757L3.98405 12.5736V12.5736ZM27.5933 13.0602C27.3763 11.9268 27.4306 5.50482 27.6477 -1.52588e-05C27.6477 -1.52588e-05 24.2361 1.29565 19.0386 8.25842C19.0386 8.25842 17.3067 7.77395 14.7067 7.82581H14.5961C11.9962 7.77165 10.2644 8.25842 10.2644 8.25842C5.06684 1.29784 1.65534 -1.52588e-05 1.65534 -1.52588e-05C1.87237 5.50482 1.92655 11.9268 1.70956 13.0602C1.49253 14.1936 0.249146 17.7562 0.249146 17.7562C8.58904 16.6227 14.6525 25.9063 14.6525 25.9063H14.6547C14.6547 25.9063 20.7182 16.6227 29.0581 17.7562C29.0581 17.7562 27.8126 14.1936 27.5977 13.0602H27.5933H27.5933Z" fill="#D4AF37"/>
<path d="M0.492398 19.1426C0.600915 21.829 0.904722 26.1486 0.993738 28.835L0.746353 28.4066C5.24733 30.8228 10.6033 33.7125 15.0847 36.1654L14.1581 36.1784C14.3251 36.068 14.5139 35.9383 14.694 35.8151C17.3872 33.9203 19.9264 31.7032 22.0358 29.1897C24.13 26.6417 26.1918 23.7584 26.6995 20.4382L28.0797 21.6343C28.0494 21.6387 27.9843 21.6538 27.9321 21.6647C25.5841 22.2076 23.3487 23.2177 21.3326 24.5372C20.0588 25.3851 18.8912 26.3799 17.8408 27.5005L17.6347 27.3555C18.3726 25.9344 19.3751 24.6561 20.5362 23.5507C22.472 21.7274 24.8158 20.3279 27.3483 19.4994C27.598 19.4174 28.785 19.121 29.0368 19.0475C28.9891 19.9603 28.9608 21.2428 28.7916 22.1254C28.529 23.579 27.9886 24.9936 27.292 26.2784C24.8266 30.7233 20.4299 34.1582 16.3022 36.968C15.7704 37.3248 15.1911 37.6688 14.6333 37.9997C14.5703 37.963 10.9114 35.7545 10.6945 35.6247C7.48907 33.6759 3.19436 31.0673 -0.000244141 29.1055C0.0910147 26.2827 0.136541 21.9633 0.245081 19.1405H0.49677L0.492444 19.1426L0.492398 19.1426Z" fill="#D4AF37"/>
<path d="M20.8788 10.2007L25.0478 5.39664L25.319 12.5735L25.8052 14.9485L20.8788 10.1986V10.2007V10.2007ZM20.5555 16.7287L18.5523 17.5917L16.6035 19.48L18.7694 15.1627L22.1267 14.9464L20.5576 16.7266L20.5555 16.7287H20.5555ZM10.7527 17.594L8.74972 16.7309L7.18063 14.9507L10.5379 15.167L12.7038 19.4843L10.7549 17.5961L10.7527 17.594ZM3.98405 12.5736L4.25526 5.39666L8.42417 10.2008L3.49782 14.9507L3.98389 12.5757L3.98405 12.5736V12.5736ZM27.5933 13.0602C27.3763 11.9268 27.4306 5.50482 27.6477 -1.52588e-05C27.6477 -1.52588e-05 24.2361 1.29565 19.0386 8.25842C19.0386 8.25842 17.3067 7.77395 14.7067 7.82581H14.5961C11.9962 7.77165 10.2644 8.25842 10.2644 8.25842C5.06684 1.29784 1.65534 -1.52588e-05 1.65534 -1.52588e-05C1.87237 5.50482 1.92655 11.9268 1.70956 13.0602C1.49253 14.1936 0.249146 17.7562 0.249146 17.7562C8.58904 16.6227 14.6525 25.9063 14.6525 25.9063H14.6547C14.6547 25.9063 20.7182 16.6227 29.0581 17.7562C29.0581 17.7562 27.8126 14.1936 27.5977 13.0602H27.5933H27.5933Z" fill="#D4AF37"/>
<path d="M0.492398 19.1426C0.600915 21.829 0.904722 26.1486 0.993738 28.835L0.746353 28.4066C5.24733 30.8228 10.6033 33.7125 15.0847 36.1654L14.1581 36.1784C14.3251 36.068 14.5139 35.9383 14.694 35.8151C17.3872 33.9203 19.9264 31.7032 22.0358 29.1897C24.13 26.6417 26.1918 23.7584 26.6995 20.4382L28.0797 21.6343C28.0494 21.6387 27.9843 21.6538 27.9321 21.6647C25.5841 22.2076 23.3487 23.2177 21.3326 24.5372C20.0588 25.3851 18.8912 26.3799 17.8408 27.5005L17.6347 27.3555C18.3726 25.9344 19.3751 24.6561 20.5362 23.5507C22.472 21.7274 24.8158 20.3279 27.3483 19.4994C27.598 19.4174 28.785 19.121 29.0368 19.0475C28.9891 19.9603 28.9608 21.2428 28.7916 22.1254C28.529 23.579 27.9886 24.9936 27.292 26.2784C24.8266 30.7233 20.4299 34.1582 16.3022 36.968C15.7704 37.3248 15.1911 37.6688 14.6333 37.9997C14.5703 37.963 10.9114 35.7545 10.6945 35.6247C7.48907 33.6759 3.19436 31.0673 -0.000244141 29.1055C0.0910147 26.2827 0.136541 21.9633 0.245081 19.1405H0.49677L0.492444 19.1426L0.492398 19.1426Z" fill="#D4AF37"/>
<path d="M169.354 13.6183C170.986 13.6183 172.305 14.1377 173.311 15.1764C174.317 16.1986 174.82 17.633 174.82 19.4796V27.5171H171.357V19.9495C171.357 18.8613 171.085 18.0287 170.541 17.4516C169.997 16.8581 169.255 16.5613 168.315 16.5613C167.359 16.5613 166.601 16.8581 166.04 17.4516C165.496 18.0287 165.224 18.8613 165.224 19.9495V27.5171H161.762V13.8162H165.224V15.5226C165.686 14.9291 166.271 14.4674 166.98 14.1377C167.705 13.7914 168.497 13.6183 169.354 13.6183Z" fill="#D4AF37"/>
<path d="M156.635 12.184C156.025 12.184 155.514 11.9944 155.101 11.6152C154.706 11.2195 154.508 10.7331 154.508 10.156C154.508 9.57898 154.706 9.10085 155.101 8.72164C155.514 8.32594 156.025 8.1281 156.635 8.1281C157.245 8.1281 157.748 8.32594 158.143 8.72164C158.555 9.10085 158.762 9.57898 158.762 10.156C158.762 10.7331 158.555 11.2195 158.143 11.6152C157.748 11.9944 157.245 12.184 156.635 12.184ZM158.341 13.8162V27.5172H154.879V13.8162H158.341Z" fill="#D4AF37"/>
<path d="M137.227 20.6172C137.227 19.2323 137.499 18.004 138.043 16.9323C138.603 15.8606 139.353 15.0363 140.293 14.4592C141.249 13.8821 142.313 13.5936 143.483 13.5936C144.506 13.5936 145.396 13.7997 146.154 14.2119C146.929 14.6241 147.548 15.1434 148.009 15.7699V13.8162H151.496V27.5171H148.009V25.5139C147.564 26.1569 146.946 26.6928 146.154 27.1214C145.38 27.5336 144.481 27.7397 143.459 27.7397C142.305 27.7397 141.249 27.4429 140.293 26.8494C139.353 26.2559 138.603 25.4232 138.043 24.3516C137.499 23.2634 137.227 22.0186 137.227 20.6172ZM148.009 20.6667C148.009 19.8258 147.844 19.1086 147.515 18.5151C147.185 17.905 146.74 17.4434 146.179 17.1301C145.619 16.8004 145.017 16.6355 144.374 16.6355C143.731 16.6355 143.137 16.7921 142.593 17.1054C142.049 17.4187 141.604 17.8803 141.258 18.4903C140.928 19.0839 140.763 19.7928 140.763 20.6172C140.763 21.4416 140.928 22.167 141.258 22.7935C141.604 23.4036 142.049 23.8734 142.593 24.2032C143.154 24.5329 143.747 24.6978 144.374 24.6978C145.017 24.6978 145.619 24.5412 146.179 24.2279C146.74 23.8982 147.185 23.4365 147.515 22.843C147.844 22.233 148.009 21.5075 148.009 20.6667Z" fill="#D4AF37"/>
<path d="M129.483 13.6184C130.521 13.6184 131.445 13.8492 132.253 14.3109C133.06 14.756 133.687 15.4238 134.132 16.3141C134.594 17.1879 134.825 18.2431 134.825 19.4796V27.5172H131.362V19.9495C131.362 18.8614 131.09 18.0288 130.546 17.4517C130.002 16.8582 129.26 16.5614 128.32 16.5614C127.364 16.5614 126.606 16.8582 126.045 17.4517C125.501 18.0288 125.229 18.8614 125.229 19.9495V27.5172H121.767V9.21629H125.229V15.5227C125.674 14.9291 126.268 14.4675 127.01 14.1378C127.751 13.7915 128.576 13.6184 129.483 13.6184Z" fill="#D4AF37"/>
<path d="M101.943 18.8613C101.943 17.1631 102.323 15.6463 103.081 14.3108C103.856 12.9588 104.903 11.9119 106.222 11.17C107.557 10.4115 109.049 10.0323 110.698 10.0323C112.627 10.0323 114.317 10.527 115.768 11.5162C117.219 12.5054 118.233 13.8739 118.81 15.6215H114.828C114.432 14.7972 113.872 14.1789 113.146 13.7667C112.438 13.3545 111.613 13.1484 110.673 13.1484C109.668 13.1484 108.769 13.3875 107.978 13.8656C107.203 14.3273 106.593 14.9868 106.148 15.8441C105.719 16.7014 105.505 17.7072 105.505 18.8613C105.505 19.9989 105.719 21.0046 106.148 21.8785C106.593 22.7358 107.203 23.4035 107.978 23.8817C108.769 24.3433 109.668 24.5741 110.673 24.5741C111.613 24.5741 112.438 24.368 113.146 23.9559C113.872 23.5272 114.432 22.9007 114.828 22.0763H118.81C118.233 23.8404 117.219 25.2171 115.768 26.2064C114.334 27.1791 112.644 27.6655 110.698 27.6655C109.049 27.6655 107.557 27.2945 106.222 26.5526C104.903 25.7942 103.856 24.7472 103.081 23.4118C102.323 22.0763 101.943 20.5595 101.943 18.8613Z" fill="#D4AF37"/>
<path d="M91.1026 27.5171L88.2833 23.2634L85.7855 27.5171H82.0758L86.5521 20.6419L82.0264 13.8162H85.9339L88.7284 18.0452L91.251 13.8162H94.9606L90.4596 20.6419L95.0101 27.5171H91.1026Z" fill="#D4AF37"/>
<path d="M77.7481 27.5171L74.9288 23.2634L72.431 27.5171H68.7213L73.1976 20.6419L68.6719 13.8162H72.5794L75.374 18.0452L77.8965 13.8162H81.6062L77.1051 20.6419L81.6556 27.5171H77.7481Z" fill="#D4AF37"/>
<path d="M60.4933 27.7397C59.1744 27.7397 57.9873 27.4512 56.9321 26.8741C55.8769 26.2806 55.0443 25.448 54.4343 24.3763C53.8407 23.3046 53.5439 22.0681 53.5439 20.6667C53.5439 19.2652 53.849 18.0287 54.459 16.957C55.0855 15.8853 55.9346 15.061 57.0063 14.4839C58.078 13.8904 59.2733 13.5936 60.5923 13.5936C61.9112 13.5936 63.1066 13.8904 64.1782 14.4839C65.2499 15.061 66.0908 15.8853 66.7008 16.957C67.3273 18.0287 67.6406 19.2652 67.6406 20.6667C67.6406 22.0681 67.3191 23.3046 66.6761 24.3763C66.0496 25.448 65.1922 26.2806 64.1041 26.8741C63.0324 27.4512 61.8288 27.7397 60.4933 27.7397ZM60.4933 24.7225C61.1199 24.7225 61.7052 24.5742 62.2492 24.2774C62.8098 23.9641 63.255 23.5025 63.5847 22.8924C63.9145 22.2824 64.0793 21.5405 64.0793 20.6667C64.0793 19.3642 63.7331 18.3667 63.0406 17.6742C62.3646 16.9653 61.532 16.6108 60.5428 16.6108C59.5536 16.6108 58.721 16.9653 58.045 17.6742C57.3855 18.3667 57.0557 19.3642 57.0557 20.6667C57.0557 21.9692 57.3772 22.9749 58.0202 23.6838C58.6797 24.3763 59.5041 24.7225 60.4933 24.7225Z" fill="#D4AF37"/>
<path d="M51.954 10.2549V13.0495H44.7573V17.4764H50.2723V20.2215H44.7573V27.5171H41.2949V10.2549H51.954Z" fill="#D4AF37"/>
</svg>
