<?xml version="1.0" encoding="UTF-8"?>
<svg id="Layer_1" xmlns="http://www.w3.org/2000/svg" xmlns:xlink="http://www.w3.org/1999/xlink" version="1.1" viewBox="0 0 1080 1080">
  <!-- Generator: Adobe Illustrator 29.7.1, SVG Export Plug-In . SVG Version: 2.1.1 Build 8)  -->
  <defs>
    <style>
      .st0 {
        fill: none;
      }

      .st1 {
        clip-path: url(#clippath-1);
      }

      .st2 {
        fill: #3fc980;
      }

      .st3 {
        fill: #4affb1;
      }

      .st4 {
        clip-path: url(#clippath);
      }
    </style>
    <clipPath id="clippath">
      <circle class="st0" cx="542.15" cy="535.77" r="340.27"/>
    </clipPath>
    <clipPath id="clippath-1">
      <circle class="st0" cx="537.85" cy="544.23" r="340.27"/>
    </clipPath>
  </defs>
  <g class="st4">
    <g>
      <rect class="st2" x="350.58" y="760.73" width="18.79" height="128.61"/>
      <rect class="st2" x="376.25" y="707.36" width="18.79" height="181.99"/>
      <rect class="st2" x="401.91" y="656.02" width="18.79" height="233.32"/>
      <rect class="st2" x="427.58" y="607.84" width="18.79" height="281.5"/>
      <rect class="st2" x="453.25" y="558.09" width="18.79" height="331.25"/>
      <rect class="st2" x="478.92" y="540.49" width="18.79" height="348.86"/>
      <rect class="st2" x="504.58" y="574.22" width="18.79" height="315.13"/>
      <rect class="st2" x="530.25" y="607.84" width="18.79" height="281.5"/>
      <rect class="st2" x="555.92" y="644.57" width="18.79" height="244.78"/>
      <rect class="st2" x="581.59" y="672.61" width="18.79" height="216.74"/>
      <rect class="st2" x="607.25" y="680.39" width="18.79" height="208.95"/>
      <rect class="st2" x="632.92" y="678.31" width="18.79" height="211.03"/>
      <rect class="st2" x="658.59" y="646.24" width="18.79" height="243.1"/>
      <rect class="st2" x="684.26" y="566.72" width="18.79" height="322.63"/>
      <rect class="st2" x="709.92" y="467.95" width="18.79" height="421.39"/>
      <rect class="st2" x="735.59" y="375.59" width="18.79" height="513.75"/>
      <rect class="st2" x="761.26" y="184.97" width="18.79" height="704.38"/>
      <rect class="st2" x="787.41" y="184.97" width="18.79" height="704.38"/>
      <rect class="st2" x="813.57" y="184.97" width="18.79" height="704.38"/>
      <rect class="st2" x="839.72" y="184.97" width="18.79" height="704.38"/>
      <rect class="st2" x="865.88" y="184.97" width="18.79" height="704.38"/>
      <rect class="st2" x="350.58" y="185.3" width="18.79" height="458.91"/>
      <rect class="st2" x="376.25" y="184.1" width="18.79" height="372.87"/>
      <rect class="st2" x="401.91" y="184.1" width="18.79" height="301.47"/>
      <rect class="st2" x="427.58" y="184.1" width="18.79" height="244.65"/>
      <rect class="st2" x="299.02" y="184.1" width="18.79" height="706.06"/>
      <rect class="st2" x="273.61" y="184.1" width="18.79" height="706.06"/>
      <rect class="st2" x="248.95" y="184.1" width="18.79" height="706.06"/>
      <rect class="st2" x="224.29" y="184.1" width="18.79" height="706.06"/>
      <rect class="st2" x="199.63" y="184.1" width="18.79" height="706.06"/>
      <rect class="st2" x="324.69" y="184.1" width="18.79" height="537.45"/>
      <rect class="st2" x="453.25" y="184.1" width="18.79" height="234.63"/>
      <rect class="st2" x="478.92" y="184.1" width="18.79" height="233.86"/>
      <rect class="st2" x="504.58" y="184.1" width="18.79" height="249.14"/>
      <rect class="st2" x="530.25" y="184.1" width="18.79" height="282.06"/>
      <rect class="st2" x="555.92" y="184.1" width="18.79" height="320.28"/>
      <rect class="st2" x="581.59" y="184.1" width="18.79" height="354.4"/>
      <rect class="st2" x="607.25" y="184.1" width="18.79" height="374.34"/>
      <rect class="st2" x="632.92" y="184.1" width="18.79" height="323.82"/>
      <rect class="st2" x="658.59" y="184.1" width="18.79" height="273.36"/>
      <rect class="st2" x="684.26" y="184.1" width="18.79" height="211.95"/>
      <rect class="st2" x="709.92" y="184.1" width="18.79" height="146.48"/>
    </g>
  </g>
  <g class="st1">
    <g>
      <rect class="st3" x="346.27" y="769.19" width="18.79" height="128.61"/>
      <rect class="st3" x="371.94" y="715.81" width="18.79" height="181.99"/>
      <rect class="st3" x="397.61" y="664.48" width="18.79" height="233.32"/>
      <rect class="st3" x="423.28" y="616.3" width="18.79" height="281.5"/>
      <rect class="st3" x="448.94" y="566.55" width="18.79" height="331.25"/>
      <rect class="st3" x="474.61" y="548.94" width="18.79" height="348.86"/>
      <rect class="st3" x="500.28" y="582.67" width="18.79" height="315.13"/>
      <rect class="st3" x="525.95" y="616.3" width="18.79" height="281.5"/>
      <rect class="st3" x="551.61" y="653.03" width="18.79" height="244.78"/>
      <rect class="st3" x="577.28" y="681.06" width="18.79" height="216.74"/>
      <rect class="st3" x="602.95" y="688.85" width="18.79" height="208.95"/>
      <rect class="st3" x="628.62" y="686.77" width="18.79" height="211.03"/>
      <rect class="st3" x="654.28" y="654.7" width="18.79" height="243.1"/>
      <rect class="st3" x="679.95" y="575.17" width="18.79" height="322.63"/>
      <rect class="st3" x="705.62" y="476.41" width="18.79" height="421.39"/>
      <rect class="st3" x="731.29" y="384.05" width="18.79" height="513.75"/>
      <rect class="st3" x="756.95" y="193.42" width="18.79" height="704.38"/>
      <rect class="st3" x="783.11" y="193.42" width="18.79" height="704.38"/>
      <rect class="st3" x="809.26" y="193.42" width="18.79" height="704.38"/>
      <rect class="st3" x="835.42" y="193.42" width="18.79" height="704.38"/>
      <rect class="st3" x="861.57" y="193.42" width="18.79" height="704.38"/>
      <rect class="st3" x="346.27" y="193.76" width="18.79" height="458.91"/>
      <rect class="st3" x="371.94" y="192.56" width="18.79" height="372.87"/>
      <rect class="st3" x="397.61" y="192.56" width="18.79" height="301.47"/>
      <rect class="st3" x="423.28" y="192.56" width="18.79" height="244.65"/>
      <rect class="st3" x="294.72" y="192.56" width="18.79" height="706.06"/>
      <rect class="st3" x="269.31" y="192.56" width="18.79" height="706.06"/>
      <rect class="st3" x="244.65" y="192.56" width="18.79" height="706.06"/>
      <rect class="st3" x="219.99" y="192.56" width="18.79" height="706.06"/>
      <rect class="st3" x="195.33" y="192.56" width="18.79" height="706.06"/>
      <rect class="st3" x="320.38" y="192.56" width="18.79" height="537.45"/>
      <rect class="st3" x="448.94" y="192.56" width="18.79" height="234.63"/>
      <rect class="st3" x="474.61" y="192.56" width="18.79" height="233.86"/>
      <rect class="st3" x="500.28" y="192.56" width="18.79" height="249.14"/>
      <rect class="st3" x="525.95" y="192.56" width="18.79" height="282.06"/>
      <rect class="st3" x="551.61" y="192.56" width="18.79" height="320.28"/>
      <rect class="st3" x="577.28" y="192.56" width="18.79" height="354.4"/>
      <rect class="st3" x="602.95" y="192.56" width="18.79" height="374.34"/>
      <rect class="st3" x="628.62" y="192.56" width="18.79" height="323.82"/>
      <rect class="st3" x="654.28" y="192.56" width="18.79" height="273.36"/>
      <rect class="st3" x="679.95" y="192.56" width="18.79" height="211.95"/>
      <rect class="st3" x="705.62" y="192.56" width="18.79" height="146.48"/>
    </g>
  </g>
</svg>