<svg width="251" height="329" viewBox="0 0 251 329" fill="none" xmlns="http://www.w3.org/2000/svg">
<g filter="url(#filter0_n_110_498)">
<path d="M180.308 88.0918L216.31 46.6045L218.652 108.583L222.851 129.093L180.308 88.0733V88.0916V88.0918ZM177.515 144.466L160.217 151.919L143.387 168.226L162.091 130.942L191.084 129.074L177.534 144.448L177.516 144.466H177.515ZM92.8605 151.938L75.5631 144.485L62.0127 129.112L91.0058 130.98L109.71 168.263L92.8793 151.957L92.8605 151.938ZM34.4077 108.583L36.7498 46.6047L72.7517 88.092L30.2086 129.112L34.4063 108.602L34.4077 108.583V108.583ZM238.293 112.786C236.419 102.998 236.888 47.5387 238.762 0C238.762 0 209.301 11.1891 164.416 71.3184C164.416 71.3184 149.459 67.1346 127.007 67.5824H126.051C103.599 67.1147 88.6439 71.3184 88.6439 71.3184C43.7585 11.208 14.2973 0 14.2973 0C16.1716 47.5387 16.6395 102.998 14.7656 112.786C12.8913 122.574 2.15369 153.339 2.15369 153.339C74.1755 143.551 126.539 223.722 126.539 223.722H126.558C126.558 223.722 178.921 143.551 250.943 153.339C250.943 153.339 240.187 122.574 238.331 112.786H238.293H238.293Z" fill="#D4AF37"/>
<path d="M4.25437 165.312C5.1915 188.512 7.81513 225.815 8.58385 249.014L6.44747 245.315C45.3171 266.18 91.5702 291.136 130.271 312.318L122.269 312.43C123.711 311.477 125.342 310.357 126.897 309.293C150.155 292.929 172.083 273.783 190.299 252.077C208.385 230.073 226.189 205.174 230.574 176.5L242.494 186.83C242.232 186.868 241.669 186.998 241.219 187.092C220.942 191.781 201.637 200.504 184.227 211.899C173.226 219.221 163.143 227.813 154.072 237.489L152.292 236.237C158.664 223.965 167.322 212.926 177.349 203.38C194.066 187.634 214.306 175.548 236.177 168.394C238.333 167.685 248.584 165.126 250.759 164.491C250.347 172.374 250.102 183.449 248.641 191.071C246.374 203.624 241.707 215.84 235.691 226.936C214.4 265.321 176.431 294.984 140.785 319.249C136.193 322.331 131.189 325.301 126.372 328.158C125.829 327.842 94.2314 308.77 92.3575 307.649C64.6764 290.819 27.5881 268.292 0 251.35C0.788095 226.973 1.18125 189.671 2.11859 165.294H4.29212L4.25476 165.313L4.25437 165.312Z" fill="#D4AF37"/>
<path d="M180.308 88.0918L216.31 46.6045L218.652 108.583L222.851 129.093L180.308 88.0733V88.0916V88.0918ZM177.515 144.466L160.217 151.919L143.387 168.226L162.091 130.942L191.084 129.074L177.534 144.448L177.516 144.466H177.515ZM92.8605 151.938L75.5631 144.485L62.0127 129.112L91.0058 130.98L109.71 168.263L92.8793 151.957L92.8605 151.938ZM34.4077 108.583L36.7498 46.6047L72.7517 88.092L30.2086 129.112L34.4063 108.602L34.4077 108.583V108.583ZM238.293 112.786C236.419 102.998 236.888 47.5387 238.762 0C238.762 0 209.301 11.1891 164.416 71.3184C164.416 71.3184 149.459 67.1346 127.007 67.5824H126.051C103.599 67.1147 88.6439 71.3184 88.6439 71.3184C43.7585 11.208 14.2973 0 14.2973 0C16.1716 47.5387 16.6395 102.998 14.7656 112.786C12.8913 122.574 2.15369 153.339 2.15369 153.339C74.1755 143.551 126.539 223.722 126.539 223.722H126.558C126.558 223.722 178.921 143.551 250.943 153.339C250.943 153.339 240.187 122.574 238.331 112.786H238.293H238.293Z" fill="#D4AF37"/>
<path d="M4.25437 165.312C5.1915 188.512 7.81513 225.815 8.58385 249.014L6.44747 245.315C45.3171 266.18 91.5702 291.136 130.271 312.318L122.269 312.43C123.711 311.477 125.342 310.357 126.897 309.293C150.155 292.929 172.083 273.783 190.299 252.077C208.385 230.073 226.189 205.174 230.574 176.5L242.494 186.83C242.232 186.868 241.669 186.998 241.219 187.092C220.942 191.781 201.637 200.504 184.227 211.899C173.226 219.221 163.143 227.813 154.072 237.489L152.292 236.237C158.664 223.965 167.322 212.926 177.349 203.38C194.066 187.634 214.306 175.548 236.177 168.394C238.333 167.685 248.584 165.126 250.759 164.491C250.347 172.374 250.102 183.449 248.641 191.071C246.374 203.624 241.707 215.84 235.691 226.936C214.4 265.321 176.431 294.984 140.785 319.249C136.193 322.331 131.189 325.301 126.372 328.158C125.829 327.842 94.2314 308.77 92.3575 307.649C64.6764 290.819 27.5881 268.292 0 251.35C0.788095 226.973 1.18125 189.671 2.11859 165.294H4.29212L4.25476 165.313L4.25437 165.312Z" fill="#D4AF37"/>
</g>
<defs>
<filter id="filter0_n_110_498" x="0" y="0" width="250.943" height="328.158" filterUnits="userSpaceOnUse" color-interpolation-filters="sRGB">
<feFlood flood-opacity="0" result="BackgroundImageFix"/>
<feBlend mode="normal" in="SourceGraphic" in2="BackgroundImageFix" result="shape"/>
<feTurbulence type="fractalNoise" baseFrequency="20 20" stitchTiles="stitch" numOctaves="3" result="noise" seed="5224" />
<feColorMatrix in="noise" type="luminanceToAlpha" result="alphaNoise" />
<feComponentTransfer in="alphaNoise" result="coloredNoise1">
<feFuncA type="discrete" tableValues="1 1 1 1 1 1 1 1 1 1 1 1 1 1 1 1 1 1 1 1 1 1 1 1 1 1 1 1 1 1 1 1 1 1 1 1 1 1 1 1 1 1 1 1 1 1 1 1 1 1 1 0 0 0 0 0 0 0 0 0 0 0 0 0 0 0 0 0 0 0 0 0 0 0 0 0 0 0 0 0 0 0 0 0 0 0 0 0 0 0 0 0 0 0 0 0 0 0 0 0 "/>
</feComponentTransfer>
<feComposite operator="in" in2="shape" in="coloredNoise1" result="noise1Clipped" />
<feFlood flood-color="rgba(0, 0, 0, 0.25)" result="color1Flood" />
<feComposite operator="in" in2="noise1Clipped" in="color1Flood" result="color1" />
<feMerge result="effect1_noise_110_498">
<feMergeNode in="shape" />
<feMergeNode in="color1" />
</feMerge>
</filter>
</defs>
</svg>
